<svg version="1.1" viewBox="0.0 0.0 38.0 38.0" fill="none" stroke="none" stroke-linecap="square" stroke-miterlimit="10" xmlns:xlink="http://www.w3.org/1999/xlink" xmlns="http://www.w3.org/2000/svg"><clipPath id="p.0"><path d="m0 0l38.0 0l0 38.0l-38.0 0l0 -38.0z" clip-rule="nonzero"/></clipPath><g clip-path="url(#p.0)"><path fill="#000000" fill-opacity="0.0" d="m0 0l38.0 0l0 38.0l-38.0 0z" fill-rule="evenodd"/><path fill="#d9d9d9" d="m-0.005249344 19.06834l0 0c0 -10.49776 8.510115 -19.007875 19.007874 -19.007875l0 0c5.0412025 0 9.875929 2.0026095 13.440598 5.5672774c3.5646667 3.5646677 5.567276 8.399395 5.567276 13.440598l0 0c0 10.497759 -8.510115 19.007874 -19.007874 19.007874l0 0c-10.497759 0 -19.007874 -8.510115 -19.007874 -19.007874z" fill-rule="evenodd"/><path fill="#000000" fill-opacity="0.0" d="m-13.3149605 -2.007874l64.62992 0l0 42.015747l-64.62992 0z" fill-rule="evenodd"/><path fill="#000000" d="m12.168488 20.782501q0.015625 -0.046875 0.015625 -0.125q0.015625 -0.015625 0.015625 -0.046875q0.015625 -0.21875 0.265625 -0.1875l2.140625 0.328125q0.1875 0.046875 0.1875 0.21875q0 0.140625 -0.109375 0.546875q-0.34375 1.015625 -1.140625 1.6875q-0.78125 0.65625 -1.890625 0.875q-0.09375 0.03125 -0.09375 0.109375l0.046875 1.421875q0 0.09375 -0.078125 0.15625q-0.0625 0.0625 -0.15625 0.0625l-1.859375 0q-0.09375 0 -0.15625 -0.0625q-0.0625 -0.0625 -0.0625 -0.15625l0.03125 -1.5q0 -0.0625 -0.078125 -0.09375q-1.0 -0.28125 -1.734375 -0.953125q-0.734375 -0.6875 -1.09375 -1.671875q-0.3125 -0.9375 -0.3125 -2.203125q0 -1.25 0.3125 -2.15625q0.359375 -0.96875 1.0625 -1.625001q0.71875 -0.65625 1.734375 -0.9375q0.078125 -0.015625 0.078125 -0.09375l-0.046875 -1.4375q0 -0.09375 0.0625 -0.15625q0.078125 -0.0625 0.171875 -0.0625l1.84375 0q0.09375 0 0.15625 0.0625q0.0625 0.0625 0.0625 0.15625l-0.015625 1.359375q0 0.078125 0.09375 0.109375q1.125 0.25 1.9375 0.9375q0.8125 0.67187595 1.125 1.593751q0.140625 0.4375 0.140625 0.671875l0 0.03125q0 0.171875 -0.1875 0.203125l-2.140625 0.3125l-0.03125 0q-0.171875 0 -0.234375 -0.1875l-0.046875 -0.296875q-0.140625 -0.484375 -0.59375 -0.796875q-0.4375 -0.3125 -1.046875 -0.3125q-0.59375 0 -1.015625 0.296875q-0.40625 0.296875 -0.578125 0.8125q-0.203125 0.5625 -0.203125 1.53125q0 0.96875 0.1875 1.53125q0.171875 0.5625 0.59375 0.890625q0.421875 0.3125 1.015625 0.3125q0.578125 0 1.015625 -0.3125q0.4375 -0.3125 0.609375 -0.84375zm6.018402 -8.062501q0.09375 -0.0625 0.28125 -0.0625l2.25 0q0.09375 0 0.15625 0.078125q0.078125 0.0625 0.078125 0.15625l0 12.609376q0 0.09375 -0.078125 0.15625q-0.0625 0.0625 -0.15625 0.0625l-2.171875 0q-0.09375 0 -0.171875 -0.0625q-0.0625 -0.0625 -0.0625 -0.15625l0 -10.234376q0 -0.03125 -0.03125 -0.0625q-0.03125 -0.046875 -0.078125 -0.03125l-1.84375 0.515625l-0.078125 0.015625q-0.15625 0 -0.15625 -0.203125l-0.0625 -1.609375q0 -0.1875 0.171875 -0.265625l1.953125 -0.90625zm9.104309 13.203126q-2.046875 0 -3.25 -1.140625q-1.1875 -1.15625 -1.1875 -3.125l0 -4.9375q0 -1.937501 1.1875 -3.062501q1.203125 -1.140625 3.25 -1.140625q2.046875 0 3.25 1.140625q1.203125 1.125 1.203125 3.062501l0 4.9375q0 1.96875 -1.203125 3.125q-1.203125 1.140625 -3.25 1.140625zm0 -2.25q0.84375 0 1.328125 -0.515625q0.5 -0.515625 0.5 -1.375l0 -5.125q0 -0.85937595 -0.5 -1.375001q-0.484375 -0.515625 -1.328125 -0.515625q-0.8125 0 -1.3125 0.515625q-0.5 0.515625 -0.5 1.375001l0 5.125q0 0.859375 0.5 1.375q0.5 0.515625 1.3125 0.515625z" fill-rule="nonzero"/></g></svg>