<svg version="1.1" viewBox="0.0 0.0 86.0 38.0" fill="none" stroke="none" stroke-linecap="square" stroke-miterlimit="10" xmlns:xlink="http://www.w3.org/1999/xlink" xmlns="http://www.w3.org/2000/svg"><clipPath id="p.0"><path d="m0 0l86.0 0l0 38.0l-86.0 0l0 -38.0z" clip-rule="nonzero"/></clipPath><g clip-path="url(#p.0)"><path fill="#000000" fill-opacity="0.0" d="m0 0l86.0 0l0 38.0l-86.0 0z" fill-rule="evenodd"/><path fill="#3a862d" d="m0 0l87.65354 0l0 38.015747l-87.65354 0z" fill-rule="evenodd"/><path fill="#d9d9d9" d="m27.574802 19.007874l0 0c0 -8.514751 6.9025726 -15.417322 15.417324 -15.417322l0 0c4.088928 0 8.010384 1.6243203 10.901691 4.515629c2.8913116 2.8913088 4.5156326 6.812765 4.5156326 10.901693l0 0c0 8.514753 -6.9025726 15.417324 -15.417324 15.417324l0 0c-8.514751 0 -15.417324 -6.9025707 -15.417324 -15.417324z" fill-rule="evenodd"/><path fill="#000000" fill-opacity="0.0" d="m12.0078745 4.3196225l61.984253 0l0 29.070866l-61.984253 0z" fill-rule="evenodd"/><path fill="#000000" d="m37.915215 21.490055q0 1.28125 -0.796875 2.125q-0.78125 0.828125 -2.140625 1.046875q-0.078125 0.03125 -0.078125 0.09375l0.015625 1.046875q0 0.078125 -0.0625 0.125q-0.046875 0.0625 -0.125 0.0625l-1.59375 0q-0.09375 0 -0.15625 -0.0625q-0.046875 -0.046875 -0.046875 -0.125l0.015625 -1.0625q0 -0.0625 -0.078125 -0.09375q-1.359375 -0.265625 -2.140625 -1.109375q-0.765625 -0.859375 -0.765625 -2.140625l0 -0.34375q0 -0.078125 0.046875 -0.140625q0.0625 -0.0625 0.140625 -0.0625l1.734375 0q0.078125 0 0.125 0.0625q0.0625 0.0625 0.0625 0.140625l0 0.234375q0 0.640625 0.5625 1.078125q0.5625 0.4375 1.53125 0.4375q0.8125 0 1.203125 -0.359375q0.40625 -0.359375 0.40625 -0.890625q0 -0.375 -0.25 -0.640625q-0.234375 -0.265625 -0.65625 -0.46875q-0.421875 -0.203125 -1.34375 -0.546875q-1.03125 -0.375 -1.734375 -0.75q-0.703125 -0.390625 -1.203125 -1.046875q-0.484375 -0.671875 -0.484375 -1.640625q0 -1.234374 0.734375 -2.046874q0.75 -0.8125 2.015625 -1.046875q0.078125 -0.03125 0.078125 -0.09375l-0.03125 -1.171875q0 -0.078125 0.046875 -0.125q0.0625 -0.0625 0.15625 -0.0625l1.59375 0q0.078125 0 0.125 0.0625q0.0625 0.046875 0.0625 0.125l-0.015625 1.203125q0 0.0625 0.078125 0.09375q1.328125 0.28125 2.109375 1.171875q0.796875 0.875 0.796875 2.156249l0 0.25q0 0.078125 -0.0625 0.140625q-0.046875 0.046875 -0.140625 0.046875l-1.734375 0q-0.078125 0 -0.140625 -0.046875q-0.046875 -0.0625 -0.046875 -0.140625l0 -0.140625q0 -0.671875 -0.53125 -1.140624q-0.53125 -0.46875 -1.4375 -0.46875q-0.734375 0 -1.140625 0.328125q-0.390625 0.3125 -0.390625 0.87499905q0 0.390625 0.234375 0.671875q0.234375 0.265625 0.6875 0.5q0.46875 0.21875 1.453125 0.5625q1.0625 0.40625 1.6875 0.734375q0.625 0.3125 1.125 0.953125q0.5 0.640625 0.5 1.640625zm4.3551483 1.09375q-0.03125 0.03125 -0.015625 0.0625q0.015625 0.03125 0.0625 0.03125l4.328125 0q0.078125 0 0.125 0.0625q0.0625 0.046875 0.0625 0.125l0 1.5625q0 0.078125 -0.0625 0.140625q-0.046875 0.046875 -0.125 0.046875l-7.203125 0q-0.078125 0 -0.140625 -0.046875q-0.046875 -0.0625 -0.046875 -0.140625l0 -1.46875q0 -0.15625 0.09375 -0.25q0.78125 -0.765625 1.59375 -1.671875q0.828125 -0.90625 1.03125 -1.125q0.453125 -0.53125 0.921875 -1.015625q1.453125 -1.609375 1.453125 -2.390625q0 -0.56249905 -0.40625 -0.92187405q-0.390625 -0.359375 -1.03125 -0.359375q-0.640625 0 -1.046875 0.359375q-0.40625 0.359375 -0.40625 0.95312405l0 0.390625q0 0.09375 -0.0625 0.15625q-0.046875 0.046875 -0.125 0.046875l-1.890625 0q-0.078125 0 -0.140625 -0.046875q-0.046875 -0.0625 -0.046875 -0.15625l0 -0.75q0.046875 -0.85937405 0.546875 -1.515624q0.5 -0.671875 1.3125 -1.015625q0.828125 -0.359375 1.859375 -0.359375q1.125 0 1.96875 0.421875q0.84375 0.421875 1.296875 1.140625q0.453125 0.71875 0.453125 1.609374q0 0.671875 -0.34375 1.375q-0.328125 0.703125 -1.0 1.515625q-0.5 0.625 -1.078125 1.234375q-0.5625 0.609375 -1.703125 1.765625l-0.234375 0.234375zm9.772522 2.203125q-1.765625 0 -2.796875 -0.984375q-1.015625 -0.984375 -1.015625 -2.671875l0 -4.234375q0 -1.656249 1.015625 -2.624999q1.03125 -0.984375 2.796875 -0.984375q1.75 0 2.78125 0.984375q1.046875 0.96875 1.046875 2.624999l0 4.234375q0 1.6875 -1.046875 2.671875q-1.03125 0.984375 -2.78125 0.984375zm0 -1.9375q0.71875 0 1.140625 -0.4375q0.421875 -0.4375 0.421875 -1.171875l0 -4.40625q0 -0.734375 -0.421875 -1.171874q-0.421875 -0.4375 -1.140625 -0.4375q-0.703125 0 -1.140625 0.4375q-0.421875 0.43749905 -0.421875 1.171874l0 4.40625q0 0.734375 0.421875 1.171875q0.4375 0.4375 1.140625 0.4375z" fill-rule="nonzero"/></g></svg>