<svg version="1.1" viewBox="0.0 0.0 38.0 38.0" fill="none" stroke="none" stroke-linecap="square" stroke-miterlimit="10" xmlns:xlink="http://www.w3.org/1999/xlink" xmlns="http://www.w3.org/2000/svg"><clipPath id="p.0"><path d="m0 0l38.0 0l0 38.0l-38.0 0l0 -38.0z" clip-rule="nonzero"/></clipPath><g clip-path="url(#p.0)"><path fill="#000000" fill-opacity="0.0" d="m0 0l38.0 0l0 38.0l-38.0 0z" fill-rule="evenodd"/><path fill="#d9d9d9" d="m-0.005249344 19.06834l0 0c0 -10.49776 8.510115 -19.007875 19.007874 -19.007875l0 0c5.0412025 0 9.875929 2.0026095 13.440598 5.5672774c3.5646667 3.5646677 5.567276 8.399395 5.567276 13.440598l0 0c0 10.497759 -8.510115 19.007874 -19.007874 19.007874l0 0c-10.497759 0 -19.007874 -8.510115 -19.007874 -19.007874z" fill-rule="evenodd"/><path fill="#000000" fill-opacity="0.0" d="m-13.3149605 -2.007874l64.62992 0l0 42.015747l-64.62992 0z" fill-rule="evenodd"/><path fill="#000000" d="m8.0829315 23.345001q-0.03125 0.046875 -0.015625 0.09375q0.015625 0.03125 0.078125 0.03125l5.046875 0q0.09375 0 0.15625 0.0625q0.078125 0.0625 0.078125 0.15625l0 1.8125q0 0.09375 -0.078125 0.15625q-0.0625 0.0625 -0.15625 0.0625l-8.390625 0q-0.09375 0 -0.15625 -0.0625q-0.0625 -0.0625 -0.0625 -0.15625l0 -1.71875q0 -0.171875 0.109375 -0.28125q0.90625 -0.890625 1.859375 -1.9375q0.953125 -1.0625 1.203125 -1.328125q0.515625 -0.609375 1.0625 -1.171875q1.6875 -1.890625 1.6875 -2.796875q0 -0.65625095 -0.46875 -1.078126q-0.453125 -0.421875 -1.203125 -0.421875q-0.75 0 -1.21875 0.421875q-0.453125 0.421875 -0.453125 1.109376l0 0.46875q0 0.09375 -0.078125 0.15625q-0.0625 0.0625 -0.15625 0.0625l-2.203125 0q-0.09375 0 -0.15625 -0.0625q-0.0625 -0.0625 -0.0625 -0.15625l0 -0.87500095q0.0625 -1.015625 0.640625 -1.78125q0.578125 -0.78125 1.53125 -1.1875q0.96875 -0.40625 2.15625 -0.40625q1.328125 0 2.296875 0.5q0.984375 0.484375 1.515625 1.328125q0.53125 0.828125 0.53125 1.859376q0 0.78125 -0.390625 1.609375q-0.390625 0.8125 -1.171875 1.765625q-0.578125 0.734375 -1.25 1.4375q-0.671875 0.703125 -2.0 2.046875l-0.28125 0.28125zm15.26001 -3.578125q0.28125 0.921875 0.28125 1.78125q0 0.9375 -0.296875 1.703125q-0.421875 1.203125 -1.515625 1.90625q-1.078125 0.6875 -2.53125 0.6875q-1.421875 0 -2.5 -0.671875q-1.0625 -0.6875 -1.515625 -1.859375q-0.1875 -0.484375 -0.28125 -1.03125l0 -0.03125q0 -0.203125 0.234375 -0.203125l2.25 0q0.1875 0 0.25 0.203125q0.015625 0.109375 0.046875 0.1875q0.046875 0.078125 0.0625 0.125q0.1875 0.484375 0.5625 0.75q0.375 0.265625 0.875 0.265625q0.515625 0 0.90625 -0.28125q0.390625 -0.28125 0.578125 -0.78125q0.1875 -0.375 0.1875 -0.96875q0 -0.546875 -0.171875 -0.984375q-0.125 -0.484375 -0.515625 -0.734375q-0.390625 -0.265625 -0.90625 -0.265625q-0.53125 0 -0.984375 0.25q-0.4375 0.234375 -0.59375 0.625q-0.046875 0.1875 -0.234375 0.1875l-2.296875 0q-0.09375 0 -0.15625 -0.0625q-0.0625 -0.0625 -0.0625 -0.15625l0 -7.515626q0 -0.09375 0.0625 -0.15625q0.0625 -0.078125 0.15625 -0.078125l7.703125 0q0.09375 0 0.15625 0.078125q0.0625 0.0625 0.0625 0.15625l0 1.796875q0 0.09375 -0.0625 0.171875q-0.0625 0.0625 -0.15625 0.0625l-5.203125 0q-0.09375 0 -0.09375 0.09375l-0.015625 2.750001q0 0.140625 0.109375 0.0625q0.84375 -0.546875 1.9375 -0.546875q1.3125 0 2.28125 0.671875q0.984375 0.65625 1.390625 1.8125zm7.69635 1.015625q0.015625 -0.046875 0.015625 -0.125q0.015625 -0.015625 0.015625 -0.046875q0.015625 -0.21875 0.265625 -0.1875l2.140625 0.328125q0.1875 0.046875 0.1875 0.21875q0 0.140625 -0.109375 0.546875q-0.34375 1.015625 -1.140625 1.6875q-0.78125 0.65625 -1.890625 0.875q-0.09375 0.03125 -0.09375 0.109375l0.046875 1.421875q0 0.09375 -0.078125 0.15625q-0.0625 0.0625 -0.15625 0.0625l-1.859375 0q-0.09375 0 -0.15625 -0.0625q-0.0625 -0.0625 -0.0625 -0.15625l0.03125 -1.5q0 -0.0625 -0.078125 -0.09375q-1.0 -0.28125 -1.734375 -0.953125q-0.734375 -0.6875 -1.09375 -1.671875q-0.3125 -0.9375 -0.3125 -2.203125q0 -1.25 0.3125 -2.15625q0.359375 -0.96875 1.0625 -1.625001q0.71875 -0.65625 1.734375 -0.9375q0.078125 -0.015625 0.078125 -0.09375l-0.046875 -1.4375q0 -0.09375 0.0625 -0.15625q0.078125 -0.0625 0.171875 -0.0625l1.84375 0q0.09375 0 0.15625 0.0625q0.0625 0.0625 0.0625 0.15625l-0.015625 1.359375q0 0.078125 0.09375 0.109375q1.125 0.25 1.9375 0.9375q0.8125 0.67187595 1.125 1.593751q0.140625 0.4375 0.140625 0.671875l0 0.03125q0 0.171875 -0.1875 0.203125l-2.140625 0.3125l-0.03125 0q-0.171875 0 -0.234375 -0.1875l-0.046875 -0.296875q-0.140625 -0.484375 -0.59375 -0.796875q-0.4375 -0.3125 -1.046875 -0.3125q-0.59375 0 -1.015625 0.296875q-0.40625 0.296875 -0.578125 0.8125q-0.203125 0.5625 -0.203125 1.53125q0 0.96875 0.1875 1.53125q0.171875 0.5625 0.59375 0.890625q0.421875 0.3125 1.015625 0.3125q0.578125 0 1.015625 -0.3125q0.4375 -0.3125 0.609375 -0.84375z" fill-rule="nonzero"/></g></svg>