<svg version="1.1" viewBox="0.0 0.0 86.0 38.0" fill="none" stroke="none" stroke-linecap="square" stroke-miterlimit="10" xmlns:xlink="http://www.w3.org/1999/xlink" xmlns="http://www.w3.org/2000/svg"><clipPath id="p.0"><path d="m0 0l86.0 0l0 38.0l-86.0 0l0 -38.0z" clip-rule="nonzero"/></clipPath><g clip-path="url(#p.0)"><path fill="#000000" fill-opacity="0.0" d="m0 0l86.0 0l0 38.0l-86.0 0z" fill-rule="evenodd"/><path fill="#3a862d" d="m0 0l87.65354 0l0 38.015747l-87.65354 0z" fill-rule="evenodd"/><path fill="#d9d9d9" d="m27.574802 19.007874l0 0c0 -8.514751 6.9025726 -15.417322 15.417324 -15.417322l0 0c4.088928 0 8.010384 1.6243203 10.901691 4.515629c2.8913116 2.8913088 4.5156326 6.812765 4.5156326 10.901693l0 0c0 8.514753 -6.9025726 15.417324 -15.417324 15.417324l0 0c-8.514751 0 -15.417324 -6.9025707 -15.417324 -15.417324z" fill-rule="evenodd"/><path fill="#000000" fill-opacity="0.0" d="m12.0078745 4.3196225l61.984253 0l0 29.070866l-61.984253 0z" fill-rule="evenodd"/><path fill="#000000" d="m42.643227 21.490055q0 1.28125 -0.796875 2.125q-0.78125 0.828125 -2.140625 1.046875q-0.078125 0.03125 -0.078125 0.09375l0.015625 1.046875q0 0.078125 -0.0625 0.125q-0.046875 0.0625 -0.125 0.0625l-1.59375 0q-0.09375 0 -0.15625 -0.0625q-0.046875 -0.046875 -0.046875 -0.125l0.015625 -1.0625q0 -0.0625 -0.078125 -0.09375q-1.359375 -0.265625 -2.140625 -1.109375q-0.765625 -0.859375 -0.765625 -2.140625l0 -0.34375q0 -0.078125 0.046875 -0.140625q0.0625 -0.0625 0.140625 -0.0625l1.734375 0q0.078125 0 0.125 0.0625q0.0625 0.0625 0.0625 0.140625l0 0.234375q0 0.640625 0.5625 1.078125q0.5625 0.4375 1.53125 0.4375q0.8125 0 1.203125 -0.359375q0.40625 -0.359375 0.40625 -0.890625q0 -0.375 -0.25 -0.640625q-0.234375 -0.265625 -0.65625 -0.46875q-0.421875 -0.203125 -1.34375 -0.546875q-1.03125 -0.375 -1.734375 -0.75q-0.703125 -0.390625 -1.203125 -1.046875q-0.484375 -0.671875 -0.484375 -1.640625q0 -1.234374 0.734375 -2.046874q0.75 -0.8125 2.015625 -1.046875q0.078125 -0.03125 0.078125 -0.09375l-0.03125 -1.171875q0 -0.078125 0.046875 -0.125q0.0625 -0.0625 0.15625 -0.0625l1.59375 0q0.078125 0 0.125 0.0625q0.0625 0.046875 0.0625 0.125l-0.015625 1.203125q0 0.0625 0.078125 0.09375q1.328125 0.28125 2.109375 1.171875q0.796875 0.875 0.796875 2.156249l0 0.25q0 0.078125 -0.0625 0.140625q-0.046875 0.046875 -0.140625 0.046875l-1.734375 0q-0.078125 0 -0.140625 -0.046875q-0.046875 -0.0625 -0.046875 -0.140625l0 -0.140625q0 -0.671875 -0.53125 -1.140624q-0.53125 -0.46875 -1.4375 -0.46875q-0.734375 0 -1.140625 0.328125q-0.390625 0.3125 -0.390625 0.87499905q0 0.390625 0.234375 0.671875q0.234375 0.265625 0.6875 0.5q0.46875 0.21875 1.453125 0.5625q1.0625 0.40625 1.6875 0.734375q0.625 0.3125 1.125 0.953125q0.5 0.640625 0.5 1.640625zm8.480148 -1.984375q0.234375 0.796875 0.234375 1.53125q0 0.8125 -0.25 1.46875q-0.375 1.015625 -1.3125 1.625q-0.921875 0.59375 -2.15625 0.59375q-1.21875 0 -2.140625 -0.578125q-0.921875 -0.59375 -1.3125 -1.59375q-0.15625 -0.421875 -0.234375 -0.875l0 -0.03125q0 -0.1875 0.1875 -0.1875l1.9375 0q0.15625 0 0.21875 0.1875q0.015625 0.09375 0.046875 0.15625q0.03125 0.0625 0.046875 0.109375q0.15625 0.421875 0.46875 0.640625q0.328125 0.21875 0.765625 0.21875q0.4375 0 0.765625 -0.234375q0.34375 -0.234375 0.5 -0.671875q0.171875 -0.328125 0.171875 -0.828125q0 -0.46875 -0.15625 -0.84375q-0.109375 -0.40625 -0.453125 -0.625q-0.328125 -0.234375 -0.765625 -0.234375q-0.453125 0 -0.84375 0.21875q-0.375 0.203125 -0.5 0.53125q-0.046875 0.15625 -0.21875 0.15625l-1.96875 0q-0.078125 0 -0.140625 -0.046875q-0.046875 -0.0625 -0.046875 -0.140625l0 -6.453124q0 -0.078125 0.046875 -0.125q0.0625 -0.0625 0.140625 -0.0625l6.609375 0q0.078125 0 0.140625 0.0625q0.0625 0.046875 0.0625 0.125l0 1.5625q0 0.078125 -0.0625 0.140625q-0.0625 0.046875 -0.140625 0.046875l-4.453125 0q-0.09375 0 -0.09375 0.078125l-0.015625 2.374999q0 0.109375 0.109375 0.046875q0.71875 -0.46875 1.65625 -0.46875q1.125 0 1.953125 0.578125q0.84375 0.5625 1.203125 1.546875z" fill-rule="nonzero"/></g></svg>